<svg width="153" height="40" viewBox="0 0 153 40" fill="none" xmlns="http://www.w3.org/2000/svg">
<path d="M0 2C0 0.895431 0.89543 0 2 0H150.973C152.078 0 152.973 0.895431 152.973 2V38C152.973 39.1046 152.078 40 150.973 40H1.99999C0.895424 40 0 39.1046 0 38V2Z" fill="#1A151F"/>
<path d="M11.946 26.0738C11.6389 26.0738 11.3702 25.9642 11.1398 25.7451C10.9205 25.5149 10.8108 25.2465 10.8108 24.9396C10.8108 24.6218 10.9205 24.3534 11.1398 24.1342C11.3702 23.9041 11.6389 23.789 11.946 23.789C12.2641 23.789 12.5328 23.9041 12.7522 24.1342C12.9715 24.3534 13.0812 24.6218 13.0812 24.9396C13.0812 25.2465 12.9715 25.5149 12.7522 25.7451C12.5328 25.9642 12.2641 26.0738 11.946 26.0738Z" fill="white"/>
<path d="M17.495 27.0272C17.1879 27.0272 16.9521 26.9012 16.7876 26.6491C16.634 26.4081 16.6176 26.1396 16.7382 25.8437L21.6904 13.4663C21.7562 13.3129 21.8604 13.1923 22.0029 13.1046C22.1455 13.017 22.2991 12.9731 22.4636 12.9731C22.7488 12.9731 22.9736 13.0937 23.1381 13.3348C23.3136 13.5649 23.3411 13.8389 23.2204 14.1566L18.2683 26.5341C18.2025 26.7094 18.0928 26.8354 17.9392 26.9121C17.7967 26.9888 17.6486 27.0272 17.495 27.0272Z" fill="white"/>
<path d="M31.4589 25.8766C30.5814 25.8766 29.7972 25.6793 29.1062 25.2848C28.4262 24.8794 27.8887 24.3369 27.4939 23.6575C27.11 22.9671 26.9181 22.1891 26.9181 21.3234C26.9181 20.4358 27.11 19.6468 27.4939 18.9564C27.8778 18.266 28.4042 17.7291 29.0733 17.3455C29.7424 16.951 30.5101 16.7538 31.3766 16.7538C32.6709 16.7538 33.7457 17.2469 34.6012 18.2331C34.7548 18.4085 34.8096 18.5893 34.7658 18.7756C34.7219 18.9619 34.6012 19.1262 34.4038 19.2687C34.2503 19.3783 34.0803 19.4166 33.8938 19.3838C33.7073 19.3399 33.5373 19.2413 33.3838 19.0879C32.8463 18.5181 32.1773 18.2331 31.3766 18.2331C30.5321 18.2331 29.8466 18.5181 29.3201 19.0879C28.7936 19.6468 28.5304 20.3919 28.5304 21.3234C28.5304 21.9151 28.651 22.4411 28.8923 22.9014C29.1446 23.3616 29.4901 23.7287 29.9288 24.0027C30.3675 24.2657 30.8776 24.3972 31.4589 24.3972C32.2047 24.3972 32.808 24.2054 33.2686 23.8219C33.4441 23.6794 33.6251 23.6027 33.8115 23.5918C33.998 23.5698 34.1625 23.6192 34.3051 23.7397C34.4916 23.8931 34.5958 24.0684 34.6177 24.2657C34.6396 24.452 34.5738 24.6218 34.4203 24.7753C33.6306 25.5095 32.6434 25.8766 31.4589 25.8766Z" fill="white"/>
<path d="M40.4021 25.8108C40.1608 25.8108 39.9579 25.7341 39.7933 25.5807C39.6398 25.4163 39.563 25.2136 39.563 24.9725V17.6578C39.563 17.4058 39.6398 17.2031 39.7933 17.0496C39.9579 16.8962 40.1608 16.8195 40.4021 16.8195C40.6543 16.8195 40.8573 16.8962 41.0108 17.0496C41.1644 17.2031 41.2411 17.4058 41.2411 17.6578V24.9725C41.2411 25.2136 41.1644 25.4163 41.0108 25.5807C40.8573 25.7341 40.6543 25.8108 40.4021 25.8108ZM40.4021 15.3566C40.1059 15.3566 39.8482 15.2525 39.6288 15.0443C39.4204 14.8251 39.3162 14.5676 39.3162 14.2717C39.3162 13.9758 39.4204 13.7238 39.6288 13.5156C39.8482 13.2964 40.1059 13.1868 40.4021 13.1868C40.6982 13.1868 40.9505 13.2964 41.1589 13.5156C41.3782 13.7238 41.4879 13.9758 41.4879 14.2717C41.4879 14.5676 41.3782 14.8251 41.1589 15.0443C40.9505 15.2525 40.6982 15.3566 40.4021 15.3566Z" fill="white"/>
<path d="M51.0262 25.8766C50.1707 25.8766 49.403 25.6793 48.7229 25.2848C48.0429 24.8794 47.5055 24.3314 47.1106 23.6411C46.7158 22.9507 46.5128 22.1727 46.5019 21.307V13.8115C46.5019 13.5594 46.5787 13.3567 46.7322 13.2033C46.8967 13.0499 47.0996 12.9731 47.3409 12.9731C47.5932 12.9731 47.7961 13.0499 47.9497 13.2033C48.1032 13.3567 48.18 13.5594 48.18 13.8115V18.2496C48.5639 17.7893 49.0246 17.4277 49.562 17.1647C50.1104 16.8907 50.7082 16.7538 51.3553 16.7538C52.156 16.7538 52.8744 16.9565 53.5105 17.362C54.1467 17.7565 54.6457 18.2989 55.0077 18.9893C55.3806 19.6687 55.5671 20.4412 55.5671 21.307C55.5671 22.1727 55.3642 22.9507 54.9583 23.6411C54.5635 24.3314 54.026 24.8794 53.346 25.2848C52.666 25.6793 51.8927 25.8766 51.0262 25.8766ZM51.0262 24.3972C51.5856 24.3972 52.0847 24.2657 52.5234 24.0027C52.9621 23.7287 53.3076 23.3562 53.5599 22.885C53.8231 22.4137 53.9547 21.8877 53.9547 21.307C53.9547 20.7152 53.8231 20.1892 53.5599 19.729C53.3076 19.2687 52.9621 18.9071 52.5234 18.6441C52.0847 18.3701 51.5856 18.2331 51.0262 18.2331C50.4778 18.2331 49.9788 18.3701 49.5291 18.6441C49.0904 18.9071 48.7449 19.2687 48.4926 19.729C48.2403 20.1892 48.1142 20.7152 48.1142 21.307C48.1142 21.8877 48.2403 22.4137 48.4926 22.885C48.7449 23.3562 49.0904 23.7287 49.5291 24.0027C49.9788 24.2657 50.4778 24.3972 51.0262 24.3972Z" fill="white"/>
<path d="M64.4369 25.8766C63.5265 25.8766 62.7149 25.6848 62.0019 25.3013C61.3 24.9068 60.7461 24.3698 60.3403 23.6904C59.9454 23 59.748 22.211 59.748 21.3234C59.748 20.4248 59.9345 19.6358 60.3074 18.9564C60.6913 18.266 61.2177 17.7291 61.8868 17.3455C62.5558 16.951 63.3236 16.7538 64.1901 16.7538C65.0456 16.7538 65.7805 16.9455 66.3947 17.3291C67.0089 17.7017 67.4751 18.2222 67.7931 18.8906C68.1222 19.5481 68.2867 20.3097 68.2867 21.1755C68.2867 21.3837 68.2154 21.559 68.0728 21.7015C67.9302 21.833 67.7493 21.8987 67.5299 21.8987H61.278C61.3987 22.6548 61.7442 23.274 62.3145 23.7561C62.8959 24.2273 63.6033 24.4629 64.4369 24.4629C64.7769 24.4629 65.1224 24.4027 65.4734 24.2821C65.8353 24.1506 66.126 24.0027 66.3453 23.8383C66.5099 23.7178 66.6854 23.6575 66.8718 23.6575C67.0692 23.6466 67.2392 23.7013 67.3818 23.8219C67.5683 23.9863 67.667 24.1671 67.678 24.3643C67.6889 24.5616 67.6012 24.7314 67.4147 24.8739C67.0418 25.1698 66.5757 25.4108 66.0163 25.5971C65.4679 25.7834 64.9414 25.8766 64.4369 25.8766ZM64.1901 18.1674C63.3785 18.1674 62.7258 18.392 62.2323 18.8413C61.7387 19.2906 61.4261 19.8714 61.2945 20.5837H66.7731C66.6744 19.8824 66.4057 19.3071 65.9669 18.8578C65.5282 18.3975 64.9359 18.1674 64.1901 18.1674Z" fill="white"/>
<path d="M73.3884 25.8108C72.84 25.8108 72.5658 25.5369 72.5658 24.9889V17.6414C72.5658 17.0935 72.84 16.8195 73.3884 16.8195C73.9369 16.8195 74.2111 17.0935 74.2111 17.6414V17.9537C74.5401 17.5702 74.9404 17.2688 75.4121 17.0496C75.8947 16.8305 76.4157 16.7209 76.975 16.7209C77.6331 16.7209 78.1212 16.8305 78.4393 17.0496C78.7683 17.2578 78.8945 17.5099 78.8177 17.8058C78.7628 18.0359 78.6532 18.1893 78.4886 18.266C78.3241 18.3318 78.1322 18.3427 77.9128 18.2989C77.2108 18.1564 76.5802 18.1455 76.0208 18.266C75.4614 18.3866 75.0172 18.6112 74.6882 18.94C74.3701 19.2687 74.2111 19.6851 74.2111 20.1892V24.9889C74.2111 25.5369 73.9369 25.8108 73.3884 25.8108Z" fill="white"/>
<path d="M83.5449 25.8273C83.3036 25.8273 83.1007 25.7506 82.9361 25.5971C82.7826 25.4328 82.7058 25.23 82.7058 24.9889V17.6578C82.7058 17.4058 82.7826 17.2031 82.9361 17.0496C83.1007 16.8962 83.3036 16.8195 83.5449 16.8195C83.7971 16.8195 84.0001 16.8962 84.1536 17.0496C84.3072 17.2031 84.3839 17.4058 84.3839 17.6578V17.8386C84.724 17.4989 85.1353 17.2305 85.6179 17.0332C86.1005 16.836 86.6214 16.7373 87.1808 16.7373C87.9376 16.7373 88.6122 16.9017 89.2044 17.2305C89.8077 17.5482 90.2793 18.0195 90.6193 18.6441C90.9703 19.2687 91.1458 20.0358 91.1458 20.9453V24.9889C91.1458 25.23 91.0635 25.4328 90.899 25.5971C90.7455 25.7506 90.548 25.8273 90.3067 25.8273C90.0654 25.8273 89.8625 25.7506 89.698 25.5971C89.5445 25.4328 89.4677 25.23 89.4677 24.9889V20.9453C89.4677 20.0139 89.2154 19.3345 88.7109 18.9071C88.2173 18.4687 87.5976 18.2496 86.8518 18.2496C86.3911 18.2496 85.9743 18.3427 85.6014 18.529C85.2285 18.7153 84.9323 18.9673 84.713 19.2851C84.4936 19.592 84.3839 19.9481 84.3839 20.3536V24.9889C84.3839 25.23 84.3072 25.4328 84.1536 25.5971C84.0001 25.7506 83.7971 25.8273 83.5449 25.8273Z" fill="white"/>
<path d="M99.8102 25.8766C99.0096 25.8766 98.2911 25.6793 97.655 25.2848C97.0188 24.8794 96.5143 24.3369 96.1414 23.6575C95.7794 22.9671 95.5985 22.1891 95.5985 21.3234C95.5985 20.4577 95.7959 19.6796 96.1907 18.9893C96.5966 18.2989 97.1395 17.7565 97.8195 17.362C98.5105 16.9565 99.2838 16.7538 100.139 16.7538C100.995 16.7538 101.763 16.9565 102.443 17.362C103.123 17.7565 103.66 18.2989 104.055 18.9893C104.461 19.6796 104.664 20.4577 104.664 21.3234V24.9889C104.664 25.23 104.581 25.4328 104.417 25.5971C104.263 25.7506 104.066 25.8273 103.825 25.8273C103.583 25.8273 103.38 25.7506 103.216 25.5971C103.062 25.4328 102.986 25.23 102.986 24.9889V24.3808C102.602 24.841 102.135 25.2081 101.587 25.4821C101.05 25.7451 100.457 25.8766 99.8102 25.8766ZM100.139 24.3972C100.699 24.3972 101.198 24.2657 101.636 24.0027C102.075 23.7287 102.421 23.3616 102.673 22.9014C102.925 22.4302 103.051 21.9042 103.051 21.3234C103.051 20.7316 102.925 20.2056 102.673 19.7454C102.421 19.2742 102.075 18.9071 101.636 18.6441C101.198 18.3701 100.699 18.2331 100.139 18.2331C99.5909 18.2331 99.0918 18.3701 98.6421 18.6441C98.2034 18.9071 97.8524 19.2742 97.5892 19.7454C97.3369 20.2056 97.2108 20.7316 97.2108 21.3234C97.2108 21.9042 97.3369 22.4302 97.5892 22.9014C97.8524 23.3616 98.2034 23.7287 98.6421 24.0027C99.0918 24.2657 99.5909 24.3972 100.139 24.3972Z" fill="white"/>
<path d="M113.084 25.893C112.327 25.893 111.647 25.7341 111.044 25.4163C110.452 25.0876 109.98 24.6109 109.629 23.9863C109.289 23.3616 109.119 22.5946 109.119 21.685V17.6414C109.119 17.4003 109.196 17.2031 109.349 17.0496C109.514 16.8853 109.717 16.8031 109.958 16.8031C110.199 16.8031 110.397 16.8853 110.55 17.0496C110.715 17.2031 110.797 17.4003 110.797 17.6414V21.685C110.797 22.6165 111.044 23.3014 111.537 23.7397C112.042 24.1671 112.667 24.3808 113.413 24.3808C113.885 24.3808 114.301 24.2876 114.663 24.1013C115.036 23.915 115.332 23.663 115.552 23.3452C115.771 23.0274 115.881 22.6713 115.881 22.2768V17.6414C115.881 17.3893 115.958 17.1866 116.111 17.0332C116.276 16.8798 116.479 16.8031 116.72 16.8031C116.972 16.8031 117.175 16.8798 117.329 17.0332C117.482 17.1866 117.559 17.3893 117.559 17.6414V24.9725C117.559 25.2136 117.482 25.4163 117.329 25.5807C117.175 25.7341 116.972 25.8108 116.72 25.8108C116.479 25.8108 116.276 25.7341 116.111 25.5807C115.958 25.4163 115.881 25.2136 115.881 24.9725V24.7917C115.541 25.1314 115.13 25.3999 114.647 25.5971C114.164 25.7944 113.643 25.893 113.084 25.893Z" fill="white"/>
<path d="M125.927 25.8108C125.379 25.8108 124.885 25.6738 124.447 25.3999C124.008 25.115 123.662 24.7314 123.41 24.2493C123.158 23.7671 123.032 23.2247 123.032 22.622V18.5619H122.275C122.045 18.5619 121.858 18.4961 121.716 18.3646C121.573 18.2331 121.502 18.0688 121.502 17.8715C121.502 17.6523 121.573 17.477 121.716 17.3455C121.858 17.214 122.045 17.1483 122.275 17.1483H123.032V14.7813C123.032 14.5402 123.108 14.3429 123.262 14.1895C123.416 14.0361 123.613 13.9594 123.854 13.9594C124.096 13.9594 124.293 14.0361 124.447 14.1895C124.6 14.3429 124.677 14.5402 124.677 14.7813V17.1483H126.075C126.306 17.1483 126.492 17.214 126.635 17.3455C126.777 17.477 126.849 17.6523 126.849 17.8715C126.849 18.0688 126.777 18.2331 126.635 18.3646C126.492 18.4961 126.306 18.5619 126.075 18.5619H124.677V22.622C124.677 23.0603 124.798 23.4274 125.039 23.7233C125.28 24.0191 125.576 24.1671 125.927 24.1671H126.487C126.684 24.1671 126.849 24.2438 126.98 24.3972C127.123 24.5506 127.194 24.7479 127.194 24.9889C127.194 25.23 127.101 25.4273 126.914 25.5807C126.739 25.7341 126.509 25.8108 126.223 25.8108H125.927Z" fill="white"/>
<path d="M135.147 25.8766C134.346 25.8766 133.627 25.6793 132.991 25.2848C132.355 24.8794 131.851 24.3369 131.478 23.6575C131.116 22.9671 130.935 22.1891 130.935 21.3234C130.935 20.4577 131.132 19.6796 131.527 18.9893C131.933 18.2989 132.476 17.7565 133.156 17.362C133.847 16.9565 134.62 16.7538 135.476 16.7538C136.331 16.7538 137.099 16.9565 137.779 17.362C138.459 17.7565 138.996 18.2989 139.391 18.9893C139.797 19.6796 140 20.4577 140 21.3234V24.9889C140 25.23 139.918 25.4328 139.753 25.5971C139.6 25.7506 139.402 25.8273 139.161 25.8273C138.92 25.8273 138.717 25.7506 138.552 25.5971C138.399 25.4328 138.322 25.23 138.322 24.9889V24.3808C137.938 24.841 137.472 25.2081 136.923 25.4821C136.386 25.7451 135.794 25.8766 135.147 25.8766ZM135.476 24.3972C136.035 24.3972 136.534 24.2657 136.973 24.0027C137.411 23.7287 137.757 23.3616 138.009 22.9014C138.262 22.4302 138.388 21.9042 138.388 21.3234C138.388 20.7316 138.262 20.2056 138.009 19.7454C137.757 19.2742 137.411 18.9071 136.973 18.6441C136.534 18.3701 136.035 18.2331 135.476 18.2331C134.927 18.2331 134.428 18.3701 133.978 18.6441C133.54 18.9071 133.189 19.2742 132.926 19.7454C132.673 20.2056 132.547 20.7316 132.547 21.3234C132.547 21.9042 132.673 22.4302 132.926 22.9014C133.189 23.3616 133.54 23.7287 133.978 24.0027C134.428 24.2657 134.927 24.3972 135.476 24.3972Z" fill="white"/>
<path d="M2 2H150.973V-2H2V2ZM150.973 2V38H154.973V2H150.973ZM150.973 38H1.99999V42H150.973V38ZM2 38V2H-2V38H2ZM1.99999 38L2 38H-2C-2 40.2091 -0.209155 42 1.99999 42V38ZM150.973 38L150.973 38V42C153.182 42 154.973 40.2091 154.973 38H150.973ZM150.973 2L150.973 2H154.973C154.973 -0.20913 153.182 -2 150.973 -2V2ZM2 -2C-0.20914 -2 -2 -0.209138 -2 2H2L2 2V-2Z" fill="white"/>
</svg>
